<svg xmlns="http://www.w3.org/2000/svg" width="19.5" height="19.5" viewBox="0 0 31.5 31.5">
  <g id="tiktok" transform="translate(-2.25 -2.25)">
    <g id="Group_104" data-name="Group 104" transform="translate(3 3)">
      <path id="Path_104" data-name="Path 104" d="M33,11.333V24.667A8.333,8.333,0,0,1,24.667,33H11.333A8.333,8.333,0,0,1,3,24.667V11.333A8.333,8.333,0,0,1,11.333,3H24.667A8.333,8.333,0,0,1,33,11.333Z" transform="translate(-3 -3)" fill="none" stroke="#fff" stroke-linecap="round" stroke-linejoin="round" stroke-width="1.5"/>
      <path id="Path_105" data-name="Path 105" d="M13.6,18C9.955,18,7,20.686,7,24s2.955,6,6.6,6,6.6-2.686,6.6-6V6A9.506,9.506,0,0,0,29,12" transform="translate(-3 -3)" fill="none" stroke="#fff" stroke-linecap="round" stroke-linejoin="round" stroke-width="1.5"/>
    </g>
  </g>
</svg>
