<svg xmlns="http://www.w3.org/2000/svg" width="20.781" height="20.316" viewBox="0 0 38.781 32.316">
  <g id="twitter" transform="translate(0 -1.869)">
    <g id="Group_102" data-name="Group 102" transform="translate(1 2.99)">
      <path id="Path_101" data-name="Path 101" d="M37.781,3.007a18.224,18.224,0,0,1-5.25,2.558,7.49,7.49,0,0,0-13.141,5.016v1.672A17.822,17.822,0,0,1,4.344,4.679S-2.344,19.726,12.7,26.413A19.461,19.461,0,0,1,1,29.757c15.047,8.359,33.438,0,33.438-19.227A7.523,7.523,0,0,0,34.3,9.143a12.907,12.907,0,0,0,3.478-6.136Z" transform="translate(-1 -2.99)" fill="none" stroke="#fff" stroke-linecap="round" stroke-linejoin="round" stroke-width="2"/>
    </g>
  </g>
</svg>
